<?xml version="1.0" encoding="UTF-8" standalone="no"?><!DOCTYPE svg PUBLIC "-//W3C//DTD SVG 1.1//EN" "http://www.w3.org/Graphics/SVG/1.1/DTD/svg11.dtd"><svg width="100%" height="100%" viewBox="0 0 555 79" version="1.1" xmlns="http://www.w3.org/2000/svg" xmlns:xlink="http://www.w3.org/1999/xlink" xml:space="preserve" style="fill-rule:evenodd;clip-rule:evenodd;stroke-linejoin:round;stroke-miterlimit:1.41421;"><g transform="matrix(3.54551,0,0,3.54551,-970.49,-362.307)"><path d="M311.947,107.562l0,2.156c-1.052,-0.88 -2.141,-1.32 -3.266,-1.32c-1.239,0 -2.284,0.445 -3.133,1.336c-0.854,0.886 -1.281,1.969 -1.281,3.25c0,1.266 0.427,2.333 1.281,3.203c0.855,0.87 1.901,1.305 3.141,1.305c0.641,0 1.185,-0.104 1.633,-0.313c0.25,-0.104 0.509,-0.244 0.777,-0.421c0.268,-0.178 0.551,-0.391 0.848,-0.641l0,2.195c-1.042,0.589 -2.136,0.883 -3.281,0.883c-1.724,0 -3.196,-0.602 -4.415,-1.805c-1.213,-1.213 -1.82,-2.677 -1.82,-4.39c0,-1.537 0.508,-2.907 1.524,-4.11c1.25,-1.474 2.867,-2.211 4.851,-2.211c1.084,0 2.13,0.295 3.141,0.883Z" style="fill:none;"/><path d="M313.564,112.89c0,-1.698 0.622,-3.156 1.867,-4.375c1.24,-1.218 2.729,-1.828 4.469,-1.828c1.719,0 3.193,0.615 4.422,1.844c1.234,1.229 1.851,2.706 1.851,4.43c0,1.734 -0.619,3.205 -1.859,4.414c-1.245,1.213 -2.747,1.82 -4.508,1.82c-1.557,0 -2.956,-0.539 -4.195,-1.617c-1.365,-1.193 -2.047,-2.755 -2.047,-4.688Zm1.836,0.024c0,1.333 0.448,2.429 1.344,3.289c0.89,0.859 1.919,1.289 3.086,1.289c1.265,0 2.333,-0.438 3.203,-1.313c0.87,-0.885 1.304,-1.963 1.304,-3.234c0,-1.286 -0.429,-2.365 -1.289,-3.234c-0.854,-0.875 -1.911,-1.313 -3.172,-1.313c-1.255,0 -2.315,0.438 -3.179,1.313c-0.865,0.864 -1.297,1.932 -1.297,3.203Z" style="fill:none;"/><path d="M328.462,118.976l0,-12.062l2.532,0c1.213,0 2.172,0.12 2.875,0.359c0.755,0.235 1.44,0.633 2.054,1.195c1.245,1.136 1.868,2.628 1.868,4.477c0,1.854 -0.649,3.354 -1.946,4.5c-0.651,0.573 -1.333,0.971 -2.047,1.195c-0.666,0.224 -1.612,0.336 -2.836,0.336l-2.5,0Zm1.821,-1.711l0.82,0c0.818,0 1.497,-0.086 2.039,-0.257c0.542,-0.183 1.031,-0.472 1.469,-0.868c0.896,-0.817 1.344,-1.882 1.344,-3.195c0,-1.323 -0.443,-2.396 -1.329,-3.219c-0.796,-0.734 -1.971,-1.101 -3.523,-1.101l-0.82,0l0,8.64Z" style="fill:none;"/><path d="M346.736,108.625l-4.836,0l0,2.898l4.695,0l0,1.711l-4.695,0l0,4.031l4.836,0l0,1.711l-6.656,0l0,-12.062l6.656,0l0,1.711Z" style="fill:none;"/><path d="M355.947,108.711l-1.477,0.875c-0.276,-0.48 -0.539,-0.792 -0.789,-0.938c-0.26,-0.167 -0.596,-0.25 -1.008,-0.25c-0.505,0 -0.924,0.143 -1.257,0.43c-0.334,0.281 -0.5,0.635 -0.5,1.062c0,0.589 0.437,1.063 1.312,1.422l1.203,0.492c0.979,0.396 1.695,0.879 2.149,1.45c0.453,0.57 0.679,1.269 0.679,2.097c0,1.11 -0.369,2.026 -1.109,2.75c-0.745,0.729 -1.669,1.094 -2.774,1.094c-1.046,0 -1.911,-0.31 -2.593,-0.93c-0.672,-0.619 -1.091,-1.492 -1.258,-2.617l1.844,-0.406c0.083,0.708 0.229,1.198 0.437,1.469c0.375,0.52 0.922,0.781 1.641,0.781c0.568,0 1.039,-0.19 1.414,-0.57c0.375,-0.381 0.562,-0.862 0.562,-1.446c0,-0.234 -0.032,-0.449 -0.097,-0.644c-0.065,-0.196 -0.167,-0.375 -0.305,-0.539c-0.138,-0.164 -0.316,-0.318 -0.535,-0.461c-0.219,-0.143 -0.479,-0.28 -0.781,-0.41l-1.164,-0.485c-1.651,-0.698 -2.477,-1.719 -2.477,-3.062c0,-0.907 0.346,-1.664 1.039,-2.274c0.693,-0.614 1.555,-0.922 2.586,-0.922c1.391,0 2.477,0.677 3.258,2.032Z" style="fill:none;"/><path d="M367.369,107.562l0,2.156c-1.052,-0.88 -2.141,-1.32 -3.266,-1.32c-1.24,0 -2.284,0.445 -3.133,1.336c-0.854,0.886 -1.281,1.969 -1.281,3.25c0,1.266 0.427,2.333 1.281,3.203c0.854,0.87 1.901,1.305 3.141,1.305c0.64,0 1.185,-0.104 1.633,-0.313c0.25,-0.104 0.509,-0.244 0.777,-0.421c0.268,-0.178 0.551,-0.391 0.848,-0.641l0,2.195c-1.042,0.589 -2.136,0.883 -3.282,0.883c-1.724,0 -3.195,-0.602 -4.414,-1.805c-1.213,-1.213 -1.82,-2.677 -1.82,-4.39c0,-1.537 0.508,-2.907 1.523,-4.11c1.25,-1.474 2.868,-2.211 4.852,-2.211c1.083,0 2.13,0.295 3.141,0.883Z" style="fill:none;"/><path d="M368.986,112.89c0,-1.698 0.622,-3.156 1.867,-4.375c1.24,-1.218 2.729,-1.828 4.469,-1.828c1.719,0 3.193,0.615 4.422,1.844c1.234,1.229 1.851,2.706 1.851,4.43c0,1.734 -0.62,3.205 -1.859,4.414c-1.245,1.213 -2.748,1.82 -4.508,1.82c-1.557,0 -2.956,-0.539 -4.195,-1.617c-1.365,-1.193 -2.047,-2.755 -2.047,-4.688Zm1.836,0.024c0,1.333 0.448,2.429 1.344,3.289c0.89,0.859 1.919,1.289 3.085,1.289c1.266,0 2.334,-0.438 3.204,-1.313c0.869,-0.885 1.304,-1.963 1.304,-3.234c0,-1.286 -0.429,-2.365 -1.289,-3.234c-0.854,-0.875 -1.911,-1.313 -3.172,-1.313c-1.255,0 -2.315,0.438 -3.179,1.313c-0.865,0.864 -1.297,1.932 -1.297,3.203Z" style="fill:none;"/><path d="M383.884,118.976l0,-12.883l8.797,9.204l0,-8.383l1.82,0l0,12.797l-8.796,-9.18l0,8.445l-1.821,0Z" style="fill:none;"/><path d="M400.72,108.625l0,10.351l-1.82,0l0,-10.351l-2.774,0l0,-1.711l7.36,0l0,1.711l-2.766,0Z" style="fill:none;"/><path d="M411.767,108.625l-4.836,0l0,2.898l4.695,0l0,1.711l-4.695,0l0,4.031l4.836,0l0,1.711l-6.656,0l0,-12.062l6.656,0l0,1.711Z" style="fill:none;"/><path d="M416.681,112.672l-3.32,-5.758l2.07,0l2.305,4.086l2.422,-4.086l2.086,0l-3.477,5.758l3.649,6.304l-2.04,0l-2.671,-4.617l-2.75,4.617l-2.063,0l3.789,-6.304Z" style="fill:none;"/><path d="M427.369,108.625l0,10.351l-1.821,0l0,-10.351l-2.773,0l0,-1.711l7.359,0l0,1.711l-2.765,0Z" style="fill:none;"/><path d="M311.947,107.562l0,2.156c-1.052,-0.88 -2.141,-1.32 -3.266,-1.32c-1.239,0 -2.284,0.445 -3.133,1.336c-0.854,0.886 -1.281,1.969 -1.281,3.25c0,1.266 0.427,2.333 1.281,3.203c0.855,0.87 1.901,1.305 3.141,1.305c0.641,0 1.185,-0.104 1.633,-0.313c0.25,-0.104 0.509,-0.244 0.777,-0.421c0.268,-0.178 0.551,-0.391 0.848,-0.641l0,2.195c-1.042,0.589 -2.136,0.883 -3.281,0.883c-1.724,0 -3.196,-0.602 -4.415,-1.805c-1.213,-1.213 -1.82,-2.677 -1.82,-4.39c0,-1.537 0.508,-2.907 1.524,-4.11c1.25,-1.474 2.867,-2.211 4.851,-2.211c1.084,0 2.13,0.295 3.141,0.883Z" style="fill:#8a85b0;fill-rule:nonzero;"/><path d="M313.564,112.89c0,-1.698 0.622,-3.156 1.867,-4.375c1.24,-1.218 2.729,-1.828 4.469,-1.828c1.719,0 3.193,0.615 4.422,1.844c1.234,1.229 1.851,2.706 1.851,4.43c0,1.734 -0.619,3.205 -1.859,4.414c-1.245,1.213 -2.747,1.82 -4.508,1.82c-1.557,0 -2.956,-0.539 -4.195,-1.617c-1.365,-1.193 -2.047,-2.755 -2.047,-4.688Zm1.836,0.024c0,1.333 0.448,2.429 1.344,3.289c0.89,0.859 1.919,1.289 3.086,1.289c1.265,0 2.333,-0.438 3.203,-1.313c0.87,-0.885 1.304,-1.963 1.304,-3.234c0,-1.286 -0.429,-2.365 -1.289,-3.234c-0.854,-0.875 -1.911,-1.313 -3.172,-1.313c-1.255,0 -2.315,0.438 -3.179,1.313c-0.865,0.864 -1.297,1.932 -1.297,3.203Z" style="fill:#8a85b0;fill-rule:nonzero;"/><path d="M328.462,118.976l0,-12.062l2.532,0c1.213,0 2.172,0.12 2.875,0.359c0.755,0.235 1.44,0.633 2.054,1.195c1.245,1.136 1.868,2.628 1.868,4.477c0,1.854 -0.649,3.354 -1.946,4.5c-0.651,0.573 -1.333,0.971 -2.047,1.195c-0.666,0.224 -1.612,0.336 -2.836,0.336l-2.5,0Zm1.821,-1.711l0.82,0c0.818,0 1.497,-0.086 2.039,-0.257c0.542,-0.183 1.031,-0.472 1.469,-0.868c0.896,-0.817 1.344,-1.882 1.344,-3.195c0,-1.323 -0.443,-2.396 -1.329,-3.219c-0.796,-0.734 -1.971,-1.101 -3.523,-1.101l-0.82,0l0,8.64Z" style="fill:#8a85b0;fill-rule:nonzero;"/><path d="M346.736,108.625l-4.836,0l0,2.898l4.695,0l0,1.711l-4.695,0l0,4.031l4.836,0l0,1.711l-6.656,0l0,-12.062l6.656,0l0,1.711Z" style="fill:#8a85b0;fill-rule:nonzero;"/><path d="M355.947,108.711l-1.477,0.875c-0.276,-0.48 -0.539,-0.792 -0.789,-0.938c-0.26,-0.167 -0.596,-0.25 -1.008,-0.25c-0.505,0 -0.924,0.143 -1.257,0.43c-0.334,0.281 -0.5,0.635 -0.5,1.062c0,0.589 0.437,1.063 1.312,1.422l1.203,0.492c0.979,0.396 1.695,0.879 2.149,1.45c0.453,0.57 0.679,1.269 0.679,2.097c0,1.11 -0.369,2.026 -1.109,2.75c-0.745,0.729 -1.669,1.094 -2.774,1.094c-1.046,0 -1.911,-0.31 -2.593,-0.93c-0.672,-0.619 -1.091,-1.492 -1.258,-2.617l1.844,-0.406c0.083,0.708 0.229,1.198 0.437,1.469c0.375,0.52 0.922,0.781 1.641,0.781c0.568,0 1.039,-0.19 1.414,-0.57c0.375,-0.381 0.562,-0.862 0.562,-1.446c0,-0.234 -0.032,-0.449 -0.097,-0.644c-0.065,-0.196 -0.167,-0.375 -0.305,-0.539c-0.138,-0.164 -0.316,-0.318 -0.535,-0.461c-0.219,-0.143 -0.479,-0.28 -0.781,-0.41l-1.164,-0.485c-1.651,-0.698 -2.477,-1.719 -2.477,-3.062c0,-0.907 0.346,-1.664 1.039,-2.274c0.693,-0.614 1.555,-0.922 2.586,-0.922c1.391,0 2.477,0.677 3.258,2.032Z" style="fill:#8a85b0;fill-rule:nonzero;"/><path d="M367.369,107.562l0,2.156c-1.052,-0.88 -2.141,-1.32 -3.266,-1.32c-1.24,0 -2.284,0.445 -3.133,1.336c-0.854,0.886 -1.281,1.969 -1.281,3.25c0,1.266 0.427,2.333 1.281,3.203c0.854,0.87 1.901,1.305 3.141,1.305c0.64,0 1.185,-0.104 1.633,-0.313c0.25,-0.104 0.509,-0.244 0.777,-0.421c0.268,-0.178 0.551,-0.391 0.848,-0.641l0,2.195c-1.042,0.589 -2.136,0.883 -3.282,0.883c-1.724,0 -3.195,-0.602 -4.414,-1.805c-1.213,-1.213 -1.82,-2.677 -1.82,-4.39c0,-1.537 0.508,-2.907 1.523,-4.11c1.25,-1.474 2.868,-2.211 4.852,-2.211c1.083,0 2.13,0.295 3.141,0.883Z" style="fill:#8a85b0;fill-rule:nonzero;"/><path d="M368.986,112.89c0,-1.698 0.622,-3.156 1.867,-4.375c1.24,-1.218 2.729,-1.828 4.469,-1.828c1.719,0 3.193,0.615 4.422,1.844c1.234,1.229 1.851,2.706 1.851,4.43c0,1.734 -0.62,3.205 -1.859,4.414c-1.245,1.213 -2.748,1.82 -4.508,1.82c-1.557,0 -2.956,-0.539 -4.195,-1.617c-1.365,-1.193 -2.047,-2.755 -2.047,-4.688Zm1.836,0.024c0,1.333 0.448,2.429 1.344,3.289c0.89,0.859 1.919,1.289 3.085,1.289c1.266,0 2.334,-0.438 3.204,-1.313c0.869,-0.885 1.304,-1.963 1.304,-3.234c0,-1.286 -0.429,-2.365 -1.289,-3.234c-0.854,-0.875 -1.911,-1.313 -3.172,-1.313c-1.255,0 -2.315,0.438 -3.179,1.313c-0.865,0.864 -1.297,1.932 -1.297,3.203Z" style="fill:#8a85b0;fill-rule:nonzero;"/><path d="M383.884,118.976l0,-12.883l8.797,9.204l0,-8.383l1.82,0l0,12.797l-8.796,-9.18l0,8.445l-1.821,0Z" style="fill:#8a85b0;fill-rule:nonzero;"/><path d="M400.72,108.625l0,10.351l-1.82,0l0,-10.351l-2.774,0l0,-1.711l7.36,0l0,1.711l-2.766,0Z" style="fill:#8a85b0;fill-rule:nonzero;"/><path d="M411.767,108.625l-4.836,0l0,2.898l4.695,0l0,1.711l-4.695,0l0,4.031l4.836,0l0,1.711l-6.656,0l0,-12.062l6.656,0l0,1.711Z" style="fill:#8a85b0;fill-rule:nonzero;"/><path d="M416.681,112.672l-3.32,-5.758l2.07,0l2.305,4.086l2.422,-4.086l2.086,0l-3.477,5.758l3.649,6.304l-2.04,0l-2.671,-4.617l-2.75,4.617l-2.063,0l3.789,-6.304Z" style="fill:#8a85b0;fill-rule:nonzero;"/><path d="M427.369,108.625l0,10.351l-1.821,0l0,-10.351l-2.773,0l0,-1.711l7.359,0l0,1.711l-2.765,0Z" style="fill:#8a85b0;fill-rule:nonzero;"/></g><g><g transform="matrix(8.32587,0,0,8.32587,-1699.18,-1667.16)"><path d="M208.896,209.694l-4.828,-2.561l0,-1.418l4.828,-2.549l0,1.67l-3.363,1.57l3.363,1.629l0,1.659Z" style="fill:none;"/><path d="M209.81,209.699l0,-1.658l3.375,-1.617l-3.375,-1.6l0,-1.646l4.834,2.549l0,1.406l-4.834,2.566Z" style="fill:none;"/><path d="M208.896,209.694l-4.828,-2.561l0,-1.418l4.828,-2.549l0,1.67l-3.363,1.57l3.363,1.629l0,1.659Z" style="fill:#aeadae;fill-rule:nonzero;"/><path d="M209.81,209.699l0,-1.658l3.375,-1.617l-3.375,-1.6l0,-1.646l4.834,2.549l0,1.406l-4.834,2.566Z" style="fill:#aeadae;fill-rule:nonzero;"/></g><g transform="matrix(8.32587,0,0,8.32587,-1699.18,-1679.34)"><path d="M208.896,209.694l-4.828,-2.561l0,-1.418l4.828,-2.549l0,1.67l-3.363,1.57l3.363,1.629l0,1.659Z" style="fill:none;"/><path d="M209.81,209.699l0,-1.658l3.375,-1.617l-3.375,-1.6l0,-1.646l4.834,2.549l0,1.406l-4.834,2.566Z" style="fill:none;"/><path d="M208.896,209.694l-4.828,-2.561l0,-1.418l4.828,-2.549l0,1.67l-3.363,1.57l3.363,1.629l0,1.659Z" style="fill:#00d1c1;fill-rule:nonzero;"/><path d="M209.81,209.699l0,-1.658l3.375,-1.617l-3.375,-1.6l0,-1.646l4.834,2.549l0,1.406l-4.834,2.566Z" style="fill:#00d1c1;fill-rule:nonzero;"/></g><g transform="matrix(8.32587,0,0,8.32587,-1699.18,-1691.51)"><path d="M208.896,209.694l-4.828,-2.561l0,-1.418l4.828,-2.549l0,1.67l-3.363,1.57l3.363,1.629l0,1.659Z" style="fill:none;"/><path d="M209.81,209.699l0,-1.658l3.375,-1.617l-3.375,-1.6l0,-1.646l4.834,2.549l0,1.406l-4.834,2.566Z" style="fill:none;"/><path d="M208.896,209.694l-4.828,-2.561l0,-1.418l4.828,-2.549l0,1.67l-3.363,1.57l3.363,1.629l0,1.659Z" style="fill:#27ffc0;fill-rule:nonzero;"/><path d="M209.81,209.699l0,-1.658l3.375,-1.617l-3.375,-1.6l0,-1.646l4.834,2.549l0,1.406l-4.834,2.566Z" style="fill:#27ffc0;fill-rule:nonzero;"/></g></g></svg>